<svg width="47" height="70" viewBox="0 0 47 70" fill="none" xmlns="http://www.w3.org/2000/svg">
<g clip-path="url(#clip0_360_1369)">
<path d="M11.6715 70C18.1115 70 23.3382 64.7733 23.3382 58.3333V46.6666H11.6715C5.23155 46.6666 0.00488281 51.8933 0.00488281 58.3333C0.00488281 64.7733 5.23155 70 11.6715 70Z" fill="#0ACF83"/>
<path d="M0.00488281 35C0.00488281 28.56 5.23155 23.3334 11.6715 23.3334H23.3382V46.6667H11.6715C5.23155 46.6667 0.00488281 41.44 0.00488281 35Z" fill="#A259FF"/>
<path d="M0.00488281 11.6667C0.00488281 5.22667 5.23155 0 11.6715 0H23.3382V23.3333H11.6715C5.23155 23.3333 0.00488281 18.1067 0.00488281 11.6667Z" fill="#F24E1E"/>
<path d="M23.3379 0H35.0046C41.4446 0 46.6712 5.22667 46.6712 11.6667C46.6712 18.1067 41.4446 23.3333 35.0046 23.3333H23.3379V0Z" fill="#FF7262"/>
<path d="M46.6712 35C46.6712 41.44 41.4446 46.6667 35.0046 46.6667C28.5646 46.6667 23.3379 41.44 23.3379 35C23.3379 28.56 28.5646 23.3334 35.0046 23.3334C41.4446 23.3334 46.6712 28.56 46.6712 35Z" fill="#1ABCFE"/>
</g>
<defs>
<clipPath id="clip0_360_1369">
<rect width="46.676" height="70" fill="white"/>
</clipPath>
</defs>
</svg>
