<svg width="700" height="946" viewBox="0 0 700 946" fill="none" xmlns="http://www.w3.org/2000/svg">
<g opacity="0.2">
<g style="mix-blend-mode:screen" opacity="0.7">
<path style="mix-blend-mode:screen" d="M212.414 690.418C216.103 685.821 220.006 681.239 223.766 676.816C238.552 659.438 253.849 641.484 260.987 617.45C267.528 595.447 266.478 570.389 257.95 544.986C250.215 522.197 237.678 501.397 221.212 484.035C204.524 466.643 185.353 453.04 166.821 439.885C151.127 428.732 134.893 417.205 120.178 403.458C96.7501 381.47 76.4014 352.349 61.3315 319.251C46.0508 285.348 36.4861 249.08 33.0364 211.96C29.6504 174.217 32.3246 136.166 40.9545 99.294C49.5821 62.6225 64.0702 28.2853 82.8863 0L83.2127 0.360231C64.4391 28.5879 49.9794 62.853 41.366 99.4236C32.7592 136.206 30.0946 174.165 33.4763 211.816C36.9135 248.837 46.4545 285.009 61.7004 318.818C76.742 351.844 97.0481 380.908 120.433 402.853C135.12 416.643 151.354 428.17 167.048 439.308C185.594 452.478 204.78 466.095 221.495 483.516C238.026 500.939 250.617 521.813 258.39 544.683C266.904 570.231 268.011 595.432 261.441 617.565C254.261 641.715 238.921 659.726 224.092 677.133C220.332 681.571 216.43 686.138 212.74 690.735" fill="url(#paint0_linear_360_1288)"/>
<path style="mix-blend-mode:screen" d="M155.128 978.948C149.069 936.873 146.798 902.968 148.033 872.32C149.821 825.735 159.257 781.095 175.321 743.228C181.908 727.361 189.987 712.175 199.444 697.882C204.41 690.447 209.902 683.285 215.72 675.706C220.956 668.862 226.391 661.787 231.329 654.553C238.318 644.669 243.978 633.882 248.159 622.478C255.566 601.499 256.488 578.775 250.911 554.971C245.63 532.749 235.537 512.001 221.368 494.236C207.844 477.522 192.037 464.107 176.74 451.124C163.287 439.697 149.367 427.882 136.837 413.746C117.638 391.931 101.234 363.602 89.3993 331.686C76.572 296.341 69.2983 259.167 67.8445 221.527C66.4583 183.003 70.4281 144.473 79.6365 107.075C88.8317 69.611 103.221 33.977 121.214 4.00577L121.71 4.49568C103.788 34.3948 89.3993 69.9424 80.2751 107.305C71.0844 144.614 67.1242 183.052 68.5115 221.484C69.9455 259.046 77.2006 296.144 90.0095 331.412C101.759 363.242 118.106 391.499 137.248 413.141C149.75 427.248 163.656 439.078 177.094 450.461C192.405 463.429 208.313 476.902 221.807 493.689C236.052 511.551 246.197 532.412 251.507 554.755C257.056 578.415 256.091 601.96 248.669 622.824C244.448 634.262 238.745 645.077 231.712 654.986C226.746 662.19 221.311 669.395 216.103 676.182C210.299 683.761 204.751 690.908 199.855 698.314C190.405 712.561 182.327 727.698 175.732 743.516C159.726 781.297 150.318 825.821 148.53 872.262C147.352 902.925 149.622 936.758 155.625 978.775" fill="url(#paint1_linear_360_1288)"/>
<path style="mix-blend-mode:screen" d="M165.713 980.36C164.72 973.53 163.722 966.806 162.719 960.187C158.221 930.187 153.978 901.844 152.786 874.726C150.927 830.259 156.05 787.306 167.629 750.519C172.305 734.834 178.572 719.686 186.332 705.317C192.32 694.409 200.309 683.257 208.028 672.478C211.051 668.242 214.187 663.833 217.181 659.51C225.567 647.363 231.144 637.522 235.273 627.579C243.683 607.102 246.392 584.672 243.106 562.738C240.127 541.918 232.765 521.995 221.523 504.323C211.037 488.228 198.436 474.971 186.261 462.147C175.178 450.476 163.713 438.415 153.496 423.977C137.887 401.974 125.115 373.545 116.431 341.844C106.828 305.782 102.219 268.536 102.738 231.182C103.589 154.352 124.321 73.0548 159.626 8.02597L160.35 8.64557C125.073 73.4871 104.384 154.568 103.589 231.081C103.071 268.314 107.665 305.438 117.24 341.383C125.896 373.084 138.653 401.326 154.134 423.213C164.323 437.622 175.76 449.64 186.772 461.282C198.975 474.135 211.604 487.421 222.148 503.588C233.502 521.439 240.936 541.564 243.944 562.594C247.252 584.742 244.518 607.388 236.04 628.069C231.882 638.084 226.263 647.983 217.82 660.187C214.825 664.51 211.704 668.833 208.667 673.156C200.962 683.905 192.987 695.029 187.041 705.893C179.313 720.191 173.073 735.268 168.424 750.879C156.887 787.536 151.779 830.332 153.638 874.654C154.773 901.686 159.016 930 163.571 959.957C164.517 966.624 165.515 973.348 166.565 980.13" fill="url(#paint2_linear_360_1288)"/>
<path style="mix-blend-mode:screen" d="M176.299 981.758C173.546 963.026 170.056 945.302 166.678 928.199C163.131 910.317 159.796 893.429 157.696 877.133C152.261 835.014 153.084 793.761 160.066 757.81C162.705 744.279 165.884 729.654 173.348 712.709C179.932 697.738 190.66 682.378 201.033 667.522L203.133 664.51C210.442 654.423 216.916 643.738 222.488 632.565C231.792 613.27 236.22 591.927 235.373 570.461C234.607 550.977 229.938 531.855 221.651 514.265C214.073 498.588 204.921 485.965 195.243 472.594C186.729 460.821 177.888 448.646 170.126 434.078C158.264 411.816 148.997 383.285 143.406 351.729C137.262 317.493 135.247 279.063 137.645 240.634C142.371 163.977 164.379 80.6917 198.038 12.1038L198.89 12.7954C165.245 81.1527 143.321 164.265 138.582 240.634C136.255 278.977 138.255 317.277 144.386 351.383C149.976 382.824 159.157 411.167 170.949 433.343C178.669 447.839 187.467 459.986 195.967 471.729C205.687 485.144 214.868 497.81 222.488 513.588C230.877 531.364 235.6 550.693 236.366 570.389C237.231 592.109 232.754 613.705 223.339 633.228C217.737 644.45 211.23 655.183 203.885 665.317L201.785 668.314C191.44 683.127 180.741 698.444 174.213 713.285C166.82 730.101 163.656 744.625 161.045 758.069C154.092 793.847 153.269 834.928 158.675 876.859C160.775 893.112 164.11 910 167.643 927.824C171.02 944.942 174.525 962.651 177.278 981.47" fill="url(#paint3_linear_360_1288)"/>
<path style="mix-blend-mode:screen" d="M186.884 983.17C183.11 957.55 176.951 934.885 171.076 912.968C167.926 901.326 164.961 890.317 162.562 879.611C153.679 839.798 150.203 800.231 152.473 765.202C153.31 752.406 154.247 737.896 160.306 720.187C165.982 703.473 177.505 685.951 189.055 669.51C196.221 659.337 203.629 648.804 209.659 637.651C219.793 619.374 225.916 599.089 227.61 578.184C228.938 560.013 226.951 541.748 221.749 524.308C216.996 508.89 210.624 496.138 203.884 482.651C197.388 470.241 191.662 457.43 186.742 444.294C178.626 421.614 172.978 393.055 170.395 361.715C167.528 324.53 168.212 287.151 172.439 250.101C180.953 173.732 204.225 88.4726 236.294 16.0951L237.33 16.8588C205.289 89.0778 181.989 174.164 173.574 250.288C169.361 287.205 168.677 324.448 171.531 361.499C174.099 392.695 179.718 421.081 187.778 443.631C192.669 456.701 198.356 469.449 204.806 481.801C211.575 495.36 217.989 508.17 222.785 523.732C228.053 541.401 230.063 559.904 228.717 578.314C227.011 599.471 220.82 620.002 210.568 638.501C204.29 649.581 197.377 660.277 189.864 670.533C178.37 686.873 166.961 704.28 161.328 720.793C155.354 738.271 154.417 752.637 153.594 765.317C151.324 800.173 154.786 839.539 163.627 879.15C166.011 889.813 168.976 900.764 172.141 912.435C178.072 934.395 184.202 957.104 187.991 982.839" fill="url(#paint4_linear_360_1288)"/>
<path style="mix-blend-mode:screen" d="M197.471 984.568C192.959 954.107 183.522 927.709 175.207 904.438C172.369 896.657 169.8 889.323 167.445 882.104C155.284 844.755 147.479 806.902 144.897 772.594V771.758C143.903 758.79 142.882 745.231 147.323 727.637C151.027 712.954 160.094 695.562 175.036 674.467L179.62 668.04C185.807 659.395 191.667 651.182 196.903 642.608C208.454 623.674 216.202 604.553 219.906 585.764C223.286 568.783 223.966 551.363 221.921 534.164C219.977 518.487 216.245 505.187 212.385 491.124C209.249 479.813 205.999 468.069 203.417 454.323C199.16 431.268 197.045 402.594 197.443 371.599C198.055 334.05 201.375 296.596 207.376 259.539C219.381 184.15 243.944 96.8732 274.694 20.1729L275.914 20.9942C245.221 97.5504 220.7 184.654 208.596 259.971C202.601 296.913 199.281 334.251 198.663 371.686C198.266 402.536 200.323 430.98 204.594 453.963C207.163 467.666 210.398 479.323 213.52 490.576C217.451 504.741 221.154 518.098 223.113 533.948C225.195 551.386 224.51 569.05 221.083 586.268C217.323 605.288 209.504 624.64 197.826 643.761C192.561 652.406 186.687 660.605 180.471 669.308L175.959 675.793C161.144 696.7 152.176 713.876 148.529 728.314C144.187 745.605 145.195 758.862 146.16 771.715V772.55C148.742 806.628 156.504 844.308 168.608 881.499C170.964 888.703 173.575 896.009 176.356 903.761C184.7 927.133 194.179 953.631 198.72 984.308" fill="url(#paint5_linear_360_1288)"/>
<path style="mix-blend-mode:screen" d="M208.057 985.98C202.92 951.614 190.149 923.804 178.953 899.265C176.626 894.179 174.426 889.38 172.34 884.64C157.504 850.988 145.789 816.004 137.347 780.144L136.964 778.53C134.126 766.11 131.146 753.271 134.226 735.216C137.617 715.331 150.601 693.948 160.903 679.525C164.195 674.928 167.53 670.418 170.751 666.081C175.434 659.77 179.847 653.804 184.033 647.68C197.06 628.602 206.255 610.85 212.129 593.43C217.497 577.469 220.811 560.872 221.992 544.049C223.212 526.888 222.318 511.917 221.381 496.052C220.8 486.225 220.189 476.081 219.962 464.352C219.781 436.678 221.254 409.019 224.376 381.527C228.438 343.756 234.368 306.216 242.142 269.049C257.595 194.842 282.768 107.882 313.092 24.1643L314.511 25.0145C284.286 108.588 259.17 195.476 243.717 269.568C235.944 306.668 230.009 344.14 225.936 381.844C222.832 409.231 221.367 436.785 221.552 464.352C221.765 475.98 222.361 486.11 222.971 495.893C223.907 511.844 224.801 526.917 223.581 544.236C222.407 561.268 219.068 578.074 213.648 594.236C207.702 611.844 198.436 629.77 185.268 648.991C181.01 655.144 176.64 661.124 171.943 667.435C168.722 671.758 165.401 676.268 162.123 680.865C151.836 695.144 139.064 716.138 135.758 735.648C132.764 753.199 135.673 765.793 138.468 777.954L138.852 779.582C147.267 815.292 158.934 850.13 173.703 883.646C175.789 888.372 177.96 893.17 180.301 898.242C191.653 922.925 204.424 950.893 209.589 985.605" fill="url(#paint6_linear_360_1288)"/>
<path style="mix-blend-mode:screen" d="M218.643 987.378C212.967 949.654 196.705 921.196 182.33 896.095C180.599 893.055 178.896 890.087 177.264 887.176C159.303 855.112 143.456 821.874 129.827 787.68L129.131 785.994C124.349 774.006 119.383 761.599 121.185 742.767C123.328 720.13 138.213 696.556 146.812 684.539C151.977 677.334 157.256 670.62 162.421 664.092C165.444 660.259 168.41 656.47 171.276 652.695C186.048 633.228 196.918 616.311 204.481 601.009C211.88 585.892 217.82 570.083 222.219 553.804C228.363 531.585 231.073 512.867 234.521 489.164C235.203 484.453 235.94 479.539 236.693 474.352C240.694 447.94 245.661 420.043 251.436 391.455C258.886 354.164 267.499 316.182 277.063 278.574C294.432 210.375 318.768 128.559 351.406 28.2709L353.023 29.1499C320.386 129.38 296.078 211.196 278.681 279.28C269.145 316.844 260.532 354.784 253.139 392.032C247.364 420.576 242.411 448.415 238.41 474.784C237.643 479.971 236.991 484.87 236.238 489.582C232.79 513.386 230.052 532.176 223.879 554.568C219.44 571.004 213.438 586.963 205.957 602.219C198.322 617.666 187.396 634.697 172.525 654.265C169.687 658.055 166.678 661.859 163.656 665.706C158.562 672.205 153.297 678.934 148.16 686.066C139.646 697.896 125.073 721.038 122.973 743.04C121.256 761.196 126.08 773.3 130.749 784.957L131.43 786.657C145.012 820.75 160.812 853.887 178.726 885.85C180.358 888.732 182.061 891.729 183.792 894.755C198.266 920.058 214.669 948.732 220.416 986.974" fill="url(#paint7_linear_360_1288)"/>
<path style="mix-blend-mode:screen" d="M229.228 988.79C223.084 948.026 202.168 918.185 185.381 894.265L182.202 889.726C162.336 861.268 143.378 831.239 122.348 795.216L121.525 793.775C115.026 782.68 107.647 770.101 108.158 750.288C108.626 732.608 117.58 710.447 132.749 689.496C139.844 679.611 147.394 670.764 154.616 662.118L158.434 657.594C174.468 638.501 187.126 622.839 196.747 608.473C206.305 594.085 214.881 579.05 222.417 563.473C234.393 539.193 242.766 517.709 253.337 484.222C260.432 461.902 268.45 434.87 277.73 403.53L285.01 378.775C293.041 351.398 302.165 320.245 311.871 287.997C321.265 256.916 331.113 225.014 341.529 191.254C357.791 138.559 374.606 84.0778 389.775 32.2911L391.592 33.1844C376.451 85.0577 359.621 139.481 343.345 192.176C332.93 225.951 323.082 257.839 313.702 288.905C303.996 321.196 294.872 352.305 286.84 379.683L279.546 404.539C270.252 435.85 262.234 462.896 255.139 485.231C244.525 518.891 236.096 540.476 224.049 564.899C216.466 580.58 207.837 595.716 198.223 610.202C188.517 624.611 175.816 640.36 159.739 659.525L155.922 664.049C148.713 672.579 141.264 681.412 134.168 691.225C119.311 711.758 110.528 733.314 110.045 750.404C109.563 769.337 116.402 781.009 123.015 792.306L123.838 793.746C144.839 829.77 163.826 859.683 183.578 888.084L186.757 892.608C203.714 916.801 224.829 946.902 231.087 988.343" fill="url(#paint8_linear_360_1288)"/>
<path style="mix-blend-mode:screen" d="M239.814 990.187C233.187 946.585 208.156 917.06 188.034 893.328L187.14 892.262C163.017 863.761 141.405 836.383 122.348 812.219L114.103 801.787C105.603 791.066 95.94 778.818 95.1453 757.925C94.4358 739.438 103.234 715.749 118.673 694.524C127.029 683.375 136.032 672.742 145.634 662.68C152.445 655.317 158.831 648.602 165.018 642.104C173.759 632.925 182.046 624.236 189.141 616.167C202.508 600.879 213.619 585.908 222.715 573.372C240.997 548.618 256.861 522.114 270.081 494.236C280.568 472.464 292.133 445.245 305.471 411.196C317.448 380.317 331.014 343.127 346.765 297.493C382.24 195.634 408.79 110.173 428.103 36.3977L430.132 37.2911C410.791 111.196 384.156 196.671 348.709 298.617C332.887 344.28 319.378 381.513 307.373 412.45C294.02 446.686 282.384 473.862 271.898 495.677C258.577 523.702 242.604 550.345 224.205 575.231C215.066 587.853 203.913 602.839 190.475 618.213C183.38 626.354 175.093 635.043 166.351 644.251C160.179 650.735 153.793 657.45 146.996 664.798C137.449 674.786 128.503 685.348 120.205 696.427C105.149 717.089 96.5643 740.029 97.2455 757.781C97.9975 777.608 106.937 788.905 115.579 799.827L123.824 810.259C142.881 834.409 164.478 861.772 188.559 890.245L189.453 891.311C209.802 915.303 235.131 945.173 241.885 989.669" fill="url(#paint9_linear_360_1288)"/>
<path style="mix-blend-mode:screen" d="M250.414 991.599C243.319 945.317 213.732 916.138 192.107 894.813C177.278 880.159 163.144 865.994 149.536 852.219C134.764 837.349 120.815 823.329 107.477 810.259L107.008 809.798C96.3657 799.38 84.3041 787.565 82.1756 765.49C80.2741 745.994 88.6746 721.34 104.639 699.539C113.201 688.168 122.654 677.519 132.905 667.695C145.208 655.562 157.128 645.159 167.643 635.994C172.538 631.744 177.15 627.709 181.535 623.761C197.144 609.683 210.696 595.937 223.027 583.199C246.511 558.934 266.363 536.21 286.882 504.236C301.356 481.758 316.682 453.804 332.575 421.095C348.468 388.386 364.772 350.144 381.715 306.916C407.172 242.075 442.562 143.228 466.529 40.4611L468.757 41.3257C444.662 144.352 409.216 243.372 383.716 308.357C366.815 351.585 350.255 390.014 334.49 422.709C318.725 455.404 303.158 483.588 288.628 506.167C267.981 538.343 248.044 561.182 224.446 585.562C212.072 598.343 198.478 612.104 182.826 626.239C178.427 630.202 173.801 634.236 168.906 638.502C158.419 647.666 146.528 658.04 134.268 670.115C124.123 679.83 114.765 690.359 106.285 701.599C90.8174 722.752 82.6155 746.499 84.4318 765.13C86.4468 785.951 98.0969 797.349 108.356 807.406L108.839 807.882C122.178 820.951 136.141 835 150.913 849.856C164.578 863.588 178.683 877.795 193.483 892.45C215.393 914.063 245.405 943.646 252.642 991.038" fill="url(#paint10_linear_360_1288)"/>
<path style="mix-blend-mode:screen" d="M261 993.012C254.118 948.098 224.404 920.087 197.144 897.363L185.863 887.954C155.596 862.695 127.003 838.833 100.056 817.752C87.2845 807.666 72.7254 796.369 69.1779 773.084C65.4317 748.948 77.7629 721.902 90.5199 704.611C99.2735 692.984 109.183 682.303 120.092 672.738C135.701 658.674 151.31 647.55 165.032 637.738C168.041 635.591 170.992 633.415 173.858 631.398C192.845 617.651 209.49 604.323 223.283 593.098C248.91 572.205 276.382 548.213 303.599 514.265C322.117 491.21 340.961 463.213 359.593 430.994C380.65 393.92 399.66 355.686 416.538 316.47C444.294 252.867 482.153 154.179 504.815 44.5822L507.241 45.4323C484.537 155.288 446.55 254.366 418.723 317.997C401.798 357.333 382.73 395.683 361.608 432.867C342.891 465.231 323.962 493.386 305.344 516.542C277.957 550.677 250.372 574.798 224.631 595.793C210.81 607.046 194.122 620.404 175.093 634.193C172.255 636.268 169.308 638.381 166.253 640.533C152.559 650.317 137.049 661.383 121.525 675.36C110.768 684.79 100.992 695.316 92.3504 706.772C80.0192 723.501 68.0853 749.539 71.576 772.478C74.9107 794.352 88.9306 805.317 101.375 814.986C128.337 836.095 156.944 859.971 187.24 885.245L198.507 894.64C226.263 917.695 256.459 946.239 263.526 992.392" fill="url(#paint11_linear_360_1288)"/>
<path style="mix-blend-mode:screen" d="M271.587 994.409C264.704 949.741 234.11 922.594 202.055 899.899C169.148 876.556 130.409 849.467 92.5497 825.231C78.544 816.34 61.1185 805.274 56.1094 780.692C52.718 764.107 56.2939 736.715 76.4439 709.553C85.3816 697.668 95.7447 686.96 107.293 677.68C125.23 662.882 143.804 652.046 160.194 642.493L166.239 638.948C183.835 628.617 201.501 617.493 223.553 602.925C252.799 583.401 287.167 558.775 320.358 524.236C342.906 500.807 365.213 472.738 386.654 440.821C410.906 404.122 432.544 365.71 451.404 325.879C494.854 235.447 526.612 139.597 543.143 48.7032L545.768 49.4957C529.137 140.764 497.309 236.974 453.703 327.709C434.766 367.694 413.042 406.255 388.698 443.098C367.157 475.173 344.708 503.386 322.004 526.945C288.615 561.686 254.104 586.412 224.745 606.009C202.651 620.634 184.942 631.772 167.303 642.133L161.258 645.663C144.954 655.187 126.478 665.965 108.755 680.62C97.3918 689.753 87.1913 700.285 78.3879 711.974C66.2695 728.328 53.839 755.908 58.7062 779.827C63.4031 802.882 80.2326 813.559 93.7416 822.133C131.643 846.369 170.368 873.516 203.346 896.873C235.983 919.928 267.117 947.695 274.212 993.761" fill="url(#paint12_linear_360_1288)"/>
<path style="mix-blend-mode:screen" d="M282.17 995.821C274.962 949.251 240.153 922.478 207.048 902.435C160.774 874.38 120.885 851.585 85.1401 832.695C70.1553 824.842 49.6648 814.063 43.1373 788.285C36.468 761.859 49.3384 731.989 62.4359 714.553C71.5951 702.41 82.4294 691.671 94.6049 682.666C114.116 667.824 135.175 657.795 153.749 648.934L158.688 646.571C179.76 636.484 201.102 625.432 223.962 612.795C270.704 586.744 305.641 562.507 337.242 534.251C365.311 508.897 390.966 480.915 413.869 450.677C441.243 414.383 465.521 375.785 486.437 335.303C533.548 245.101 566.441 147.406 581.511 52.781L584.349 53.5303C569.208 148.631 536.102 246.787 488.722 337.392C467.692 378.062 443.286 416.839 415.77 453.3C392.755 483.695 366.971 511.821 338.76 537.306C306.989 565.721 271.896 590.058 224.97 616.21C202.109 628.876 180.739 639.942 159.61 650.058L154.672 652.421C135.302 661.657 115.294 671.153 95.9814 685.879C84.0416 694.703 73.4174 705.229 64.4367 717.133C51.9636 733.891 39.604 762.248 45.8618 787.147C51.9352 811.283 71.7446 821.729 86.2186 829.251C122.02 848.141 161.951 871.038 208.254 899.063C242.012 919.51 277.53 946.902 284.98 995.101" fill="url(#paint13_linear_360_1288)"/>
<path style="mix-blend-mode:screen" d="M292.759 997.234C285.267 948.963 247.748 923.502 212.031 905.015C163.544 879.813 119.597 858.602 77.6934 840.173C61.9423 833.271 38.1171 822.882 30.1281 795.908C25.0196 778.703 26.7224 748.357 48.3056 719.539C57.6826 707.133 68.9891 696.362 81.7802 687.651C102.753 673.026 125.159 664.265 146.828 655.836L151.085 654.208C175.549 644.64 200.14 634.035 224.192 622.695C275.646 598.329 316.882 573.415 353.975 544.28C385.573 519.322 414.689 491.283 440.904 460.562C471.321 424.69 498.238 385.906 521.277 344.755C572.361 254.525 606.418 154.986 619.941 56.8876L622.949 57.6369C609.355 156.34 575.057 256.484 523.76 347.147C500.596 388.515 473.531 427.502 442.947 463.559C416.599 494.446 387.331 522.636 355.565 547.723C318.301 576.989 276.894 602.017 225.242 626.47C201.119 637.839 176.485 648.473 151.965 658.055L147.707 659.697C126.195 668.084 103.931 676.758 83.2417 691.21C70.7432 699.707 59.691 710.215 50.5193 722.32C29.9436 749.784 28.2266 778.357 33.0087 794.481C39.9051 817.767 58.5509 827.623 78.6867 836.398C120.619 854.827 164.608 876.081 213.181 901.283C228.435 909.208 248.018 920.346 264.265 936.326C281.918 953.732 292.234 973.401 295.824 996.455" fill="url(#paint14_linear_360_1288)"/>
<path style="mix-blend-mode:screen" d="M303.343 998.631C295.51 948.458 253.096 923.574 217.024 907.478C166.891 885.115 117.509 864.971 70.2558 847.608C48.2044 839.51 25.9259 829.453 17.1422 803.502C8.06049 776.7 19.1856 744.539 34.1703 724.568C43.7919 711.877 55.5999 701.064 69.0213 692.651C91.0302 678.516 115.31 670.793 138.794 663.314L143.392 661.873C170.722 653.228 197.981 643.386 224.403 632.637C280.029 609.942 327.878 584.337 370.661 554.352C405.741 529.74 438.317 501.637 467.906 470.461C501.321 435.033 530.892 396.063 556.112 354.222C610.985 263.833 646.29 162.45 658.281 61.0231L661.516 61.6571C649.511 163.804 613.979 265.865 558.751 356.816C533.391 398.9 503.652 438.097 470.049 473.732C440.305 505.064 407.563 533.311 372.307 558.055C329.212 588.141 281.22 613.833 225.382 636.614C198.904 647.392 171.588 657.262 144.186 665.937L139.589 667.378C116.274 674.798 92.1796 682.478 70.4829 696.412C57.4281 704.609 45.9389 715.134 36.5685 727.478C22.279 746.47 11.6648 776.816 20.1363 801.816C28.3524 826.081 49.8362 835.749 71.2208 843.602C118.531 860.994 167.969 881.153 218.16 903.545C255.054 920 298.462 945.591 306.621 997.853" fill="url(#paint15_linear_360_1288)"/>
<path style="mix-blend-mode:screen" d="M313.929 1000C305.741 947.68 257.552 923.545 222.02 909.957C169.516 889.885 116.005 871.398 62.8206 855C52.1922 851.729 39.9461 847.651 29.119 840.836C17.029 833.257 8.85551 823.516 4.15857 811.095C-6.3705 783.285 4.61266 750.115 20.1509 729.568C48.744 691.758 90.8177 680.994 131.529 670.576L135.786 669.496C284.641 631.268 402.149 569.395 494.995 480.317C607.75 372.161 681.226 220.821 696.566 65.1009L700 65.6772C684.533 222.594 610.602 375.029 497.081 483.891C403.795 573.357 285.833 635.447 136.453 673.862L132.196 674.942C92.0097 685.231 50.461 695.85 22.6199 732.68C7.93315 752.161 -2.52498 783.3 7.25202 809.15C16.8162 834.424 40.3434 843.545 63.6152 850.721C116.857 867.133 170.481 885.649 222.985 905.735C298.973 934.798 313.22 972.983 317.321 999.179" fill="url(#paint16_linear_360_1288)"/>
</g>
</g>
<defs>
<linearGradient id="paint0_linear_360_1288" x1="35.1998" y1="356.728" x2="267.156" y2="354.929" gradientUnits="userSpaceOnUse">
<stop stop-color="#6B99EF"/>
<stop offset="1" stop-color="#FFFBFF"/>
</linearGradient>
<linearGradient id="paint1_linear_360_1288" x1="72.1772" y1="502.523" x2="257.688" y2="501.085" gradientUnits="userSpaceOnUse">
<stop stop-color="#6B99EF"/>
<stop offset="1" stop-color="#FFFBFF"/>
</linearGradient>
<linearGradient id="paint2_linear_360_1288" x1="107.177" y1="505.005" x2="247.946" y2="503.913" gradientUnits="userSpaceOnUse">
<stop stop-color="#6B99EF"/>
<stop offset="1" stop-color="#FFFBFF"/>
</linearGradient>
<linearGradient id="paint3_linear_360_1288" x1="140.944" y1="507.517" x2="239.198" y2="506.755" gradientUnits="userSpaceOnUse">
<stop stop-color="#6B99EF"/>
<stop offset="1" stop-color="#FFFBFF"/>
</linearGradient>
<linearGradient id="paint4_linear_360_1288" x1="153.438" y1="510.245" x2="243.022" y2="509.55" gradientUnits="userSpaceOnUse">
<stop stop-color="#6B99EF"/>
<stop offset="1" stop-color="#FFFBFF"/>
</linearGradient>
<linearGradient id="paint5_linear_360_1288" x1="145.813" y1="513.196" x2="281.572" y2="512.143" gradientUnits="userSpaceOnUse">
<stop stop-color="#6B99EF"/>
<stop offset="1" stop-color="#FFFBFF"/>
</linearGradient>
<linearGradient id="paint6_linear_360_1288" x1="134.809" y1="516.162" x2="320.122" y2="514.725" gradientUnits="userSpaceOnUse">
<stop stop-color="#6B99EF"/>
<stop offset="1" stop-color="#FFFBFF"/>
</linearGradient>
<linearGradient id="paint7_linear_360_1288" x1="122.727" y1="519.158" x2="358.671" y2="517.329" gradientUnits="userSpaceOnUse">
<stop stop-color="#6B99EF"/>
<stop offset="1" stop-color="#FFFBFF"/>
</linearGradient>
<linearGradient id="paint8_linear_360_1288" x1="110.049" y1="522.16" x2="397.234" y2="519.933" gradientUnits="userSpaceOnUse">
<stop stop-color="#6B99EF"/>
<stop offset="1" stop-color="#FFFBFF"/>
</linearGradient>
<linearGradient id="paint9_linear_360_1288" x1="97.0303" y1="525.166" x2="435.783" y2="522.539" gradientUnits="userSpaceOnUse">
<stop stop-color="#6B99EF"/>
<stop offset="1" stop-color="#FFFBFF"/>
</linearGradient>
<linearGradient id="paint10_linear_360_1288" x1="83.7849" y1="528.174" x2="474.333" y2="525.145" gradientUnits="userSpaceOnUse">
<stop stop-color="#6B99EF"/>
<stop offset="1" stop-color="#FFFBFF"/>
</linearGradient>
<linearGradient id="paint11_linear_360_1288" x1="70.3839" y1="531.201" x2="512.897" y2="527.77" gradientUnits="userSpaceOnUse">
<stop stop-color="#6B99EF"/>
<stop offset="1" stop-color="#FFFBFF"/>
</linearGradient>
<linearGradient id="paint12_linear_360_1288" x1="56.9121" y1="534.23" x2="551.447" y2="530.395" gradientUnits="userSpaceOnUse">
<stop stop-color="#6B99EF"/>
<stop offset="1" stop-color="#FFFBFF"/>
</linearGradient>
<linearGradient id="paint13_linear_360_1288" x1="43.2245" y1="537.242" x2="589.995" y2="533.002" gradientUnits="userSpaceOnUse">
<stop stop-color="#6B99EF"/>
<stop offset="1" stop-color="#FFFBFF"/>
</linearGradient>
<linearGradient id="paint14_linear_360_1288" x1="29.6416" y1="540.271" x2="628.547" y2="535.627" gradientUnits="userSpaceOnUse">
<stop stop-color="#6B99EF"/>
<stop offset="1" stop-color="#FFFBFF"/>
</linearGradient>
<linearGradient id="paint15_linear_360_1288" x1="15.7842" y1="543.304" x2="667.109" y2="538.253" gradientUnits="userSpaceOnUse">
<stop stop-color="#6B99EF"/>
<stop offset="1" stop-color="#FFFBFF"/>
</linearGradient>
<linearGradient id="paint16_linear_360_1288" x1="1.91483" y1="546.336" x2="705.659" y2="540.879" gradientUnits="userSpaceOnUse">
<stop stop-color="#6B99EF"/>
<stop offset="1" stop-color="#FFFBFF"/>
</linearGradient>
</defs>
</svg>
