<svg width="70" height="70" viewBox="0 0 70 70" fill="none" xmlns="http://www.w3.org/2000/svg">
<g clip-path="url(#clip0_360_1389)">
<path d="M4.97462 34.9992C4.97462 46.8844 11.8813 57.1544 21.8966 62.0221L7.57413 22.7798C5.85719 26.6245 4.97137 30.7885 4.97462 34.9992ZM55.2692 33.484C55.2692 29.7733 53.9363 27.2035 52.7931 25.2033C51.2711 22.73 49.8451 20.6356 49.8451 18.1623C49.8451 15.4023 51.9378 12.8331 54.8864 12.8331C55.0195 12.8331 55.1458 12.8496 55.276 12.857C49.9336 7.96311 42.8167 4.9751 34.9998 4.9751C24.5104 4.9751 15.2818 10.3569 9.91312 18.5086C10.6176 18.5297 11.282 18.544 11.8453 18.544C14.9859 18.544 19.8473 18.1629 19.8473 18.1629C21.4658 18.0675 21.6566 20.4448 20.0404 20.6362C20.0404 20.6362 18.4132 20.8275 16.6033 20.9224L27.5372 53.4449L34.1086 33.7383L29.43 20.9218C27.8132 20.827 26.2815 20.6356 26.2815 20.6356C24.6635 20.5407 24.8532 18.0669 26.4712 18.1623C26.4712 18.1623 31.4296 18.5434 34.38 18.5434C37.5199 18.5434 42.3819 18.1623 42.3819 18.1623C44.0016 18.0669 44.1918 20.4442 42.5744 20.6356C42.5744 20.6356 40.9444 20.827 39.1379 20.9218L49.9885 53.198L52.9827 43.1902C54.2814 39.0373 55.2692 36.0544 55.2692 33.484Z" fill="#00749A"/>
<path d="M35.5271 37.6255L26.5186 63.8023C29.2727 64.614 32.1291 65.0261 35.0004 65.0261C38.4969 65.0261 41.85 64.4211 44.9711 63.3241C44.8874 63.1931 44.8158 63.0546 44.7574 62.9105L35.5271 37.6255ZM61.3463 20.5939C61.4754 21.5503 61.5485 22.5775 61.5485 23.6813C61.5485 26.7281 60.9795 30.1532 59.2655 34.4358L50.0941 60.9526C59.0205 55.7473 65.0245 46.0765 65.0245 34.9992C65.0325 29.9641 63.7672 25.0088 61.3463 20.5939Z" fill="#00749A"/>
<path d="M35.0003 0C15.7016 0 0 15.7005 0 34.9991C0 54.3001 15.7011 70.0006 35.0003 70.0006C54.2984 70.0006 70.0023 54.3007 70.0023 34.9991C70.0017 15.7005 54.2984 0 35.0003 0ZM35.0003 68.3957C16.5866 68.3957 1.60484 53.414 1.60484 34.9991C1.60484 16.586 16.586 1.60541 35.0003 1.60541C53.4134 1.60541 68.394 16.586 68.394 34.9991C68.394 53.414 53.4128 68.3957 35.0003 68.3957Z" fill="#00749A"/>
</g>
<defs>
<clipPath id="clip0_360_1389">
<rect width="70" height="70" fill="white"/>
</clipPath>
</defs>
</svg>
